<svg xmlns="http://www.w3.org/2000/svg" width="1600" height="1000" viewBox="0 0 1600 1000" role="img" aria-labelledby="title desc">
<title id="title">Messenger payload over DGProto v1 vs HTTP/1.1 JSON envelope</title><desc id="desc">Local in-memory serialization benchmark using the same JSON payload and ChaCha20-Poly1305 body sealing for both envelopes; no network or TLS handshake.</desc>
<style>text{font-family:Inter,Segoe UI,Arial,sans-serif}.title{font-size:46px;font-weight:750;fill:#f8fafc}.subtitle{font-size:19px;fill:#94a3b8}.panelTitle{font-size:22px;font-weight:700;fill:#e2e8f0}.axis{font-size:14px;fill:#94a3b8}.value{font-size:12px;font-weight:650;fill:#cbd5e1}.grid{stroke:#263244;stroke-width:1}.legend{font-size:15px;fill:#cbd5e1}.cardBig{font-size:28px;font-weight:750;fill:#f8fafc}.cardLabel{font-size:14px;fill:#94a3b8}.foot{font-size:14px;fill:#94a3b8}</style>
<rect width="1600" height="1000" rx="26" fill="#0b1018"/><rect x="54" y="46" width="7" height="68" rx="3.5" fill="#5eead4"/>
<text x="82" y="82" class="title">DGProto v1 codec benchmark</text><text x="82" y="112" class="subtitle">Median of 5 runs · lower latency is better · log-scale Y axis</text>
<g transform="translate(985 66)"><circle cx="0" cy="0" r="6" fill="#5eead4"/><text x="14" y="5" class="legend">DGProto v1</text><circle cx="112" cy="0" r="6" fill="#a78bfa"/><text x="126" y="5" class="legend">Length-prefixed</text><circle cx="286" cy="0" r="6" fill="#f59e0b"/><text x="300" y="5" class="legend">WebSocket-like</text></g>
<rect x="54" y="148" width="727" height="476" rx="18" fill="#111a27" stroke="#223047"/><text x="82" y="188" class="panelTitle">ENCODE · median ns/op</text><line x1="100" y1="560.0" x2="740" y2="560.0" class="grid"/><text x="86" y="565.0" text-anchor="end" class="axis">700.7 ns</text><line x1="100" y1="475.0" x2="740" y2="475.0" class="grid"/><text x="86" y="480.0" text-anchor="end" class="axis">2.26 µs</text><line x1="100" y1="390.0" x2="740" y2="390.0" class="grid"/><text x="86" y="395.0" text-anchor="end" class="axis">7.26 µs</text><line x1="100" y1="305.0" x2="740" y2="305.0" class="grid"/><text x="86" y="310.0" text-anchor="end" class="axis">23.38 µs</text><line x1="100" y1="220.0" x2="740" y2="220.0" class="grid"/><text x="86" y="225.0" text-anchor="end" class="axis">75.29 µs</text><polyline points="167.0,530.0 402.0,412.3 637.0,220.0" fill="none" stroke="#5eead4" stroke-width="4" stroke-linecap="round" stroke-linejoin="round"/><circle cx="167.0" cy="530.0" r="7" fill="#5eead4"/><text x="167.0" y="517.0" text-anchor="middle" class="value">1.06 µs</text><circle cx="402.0" cy="412.3" r="7" fill="#5eead4"/><text x="402.0" y="399.3" text-anchor="middle" class="value">5.34 µs</text><circle cx="637.0" cy="220.0" r="7" fill="#5eead4"/><text x="637.0" y="207.0" text-anchor="middle" class="value">75.29 µs</text><polyline points="185.0,560.0 420.0,428.0 655.0,231.0" fill="none" stroke="#a78bfa" stroke-width="4" stroke-linecap="round" stroke-linejoin="round"/><circle cx="185.0" cy="560.0" r="7" fill="#a78bfa"/><text x="185.0" y="547.0" text-anchor="middle" class="value">700.7 ns</text><circle cx="420.0" cy="428.0" r="7" fill="#a78bfa"/><text x="420.0" y="415.0" text-anchor="middle" class="value">4.31 µs</text><circle cx="655.0" cy="231.0" r="7" fill="#a78bfa"/><text x="655.0" y="218.0" text-anchor="middle" class="value">64.75 µs</text><polyline points="203.0,558.6 438.0,427.3 673.0,232.8" fill="none" stroke="#f59e0b" stroke-width="4" stroke-linecap="round" stroke-linejoin="round"/><circle cx="203.0" cy="558.6" r="7" fill="#f59e0b"/><text x="203.0" y="545.6" text-anchor="middle" class="value">714.2 ns</text><circle cx="438.0" cy="427.3" r="7" fill="#f59e0b"/><text x="438.0" y="414.3" text-anchor="middle" class="value">4.35 µs</text><circle cx="673.0" cy="232.8" r="7" fill="#f59e0b"/><text x="673.0" y="219.8" text-anchor="middle" class="value">63.13 µs</text><text x="185" y="594" text-anchor="middle" class="axis">64</text><text x="420.0" y="594" text-anchor="middle" class="axis">1 KiB</text><text x="655" y="594" text-anchor="middle" class="axis">16 KiB</text>
<rect x="819" y="148" width="727" height="476" rx="18" fill="#111a27" stroke="#223047"/><text x="847" y="188" class="panelTitle">DECODE · median ns/op</text><line x1="865" y1="560.0" x2="1505" y2="560.0" class="grid"/><text x="851" y="565.0" text-anchor="end" class="axis">640.7 ns</text><line x1="865" y1="475.0" x2="1505" y2="475.0" class="grid"/><text x="851" y="480.0" text-anchor="end" class="axis">2.11 µs</text><line x1="865" y1="390.0" x2="1505" y2="390.0" class="grid"/><text x="851" y="395.0" text-anchor="end" class="axis">6.98 µs</text><line x1="865" y1="305.0" x2="1505" y2="305.0" class="grid"/><text x="851" y="310.0" text-anchor="end" class="axis">23.03 µs</text><line x1="865" y1="220.0" x2="1505" y2="220.0" class="grid"/><text x="851" y="225.0" text-anchor="end" class="axis">76.02 µs</text><polyline points="932.0,533.5 1167.0,411.1 1402.0,220.0" fill="none" stroke="#5eead4" stroke-width="4" stroke-linecap="round" stroke-linejoin="round"/><circle cx="932.0" cy="533.5" r="7" fill="#5eead4"/><text x="932.0" y="520.5" text-anchor="middle" class="value">929.1 ns</text><circle cx="1167.0" cy="411.1" r="7" fill="#5eead4"/><text x="1167.0" y="398.1" text-anchor="middle" class="value">5.19 µs</text><circle cx="1402.0" cy="220.0" r="7" fill="#5eead4"/><text x="1402.0" y="207.0" text-anchor="middle" class="value">76.02 µs</text><polyline points="950.0,559.9 1185.0,425.2 1420.0,234.0" fill="none" stroke="#a78bfa" stroke-width="4" stroke-linecap="round" stroke-linejoin="round"/><circle cx="950.0" cy="559.9" r="7" fill="#a78bfa"/><text x="950.0" y="546.9" text-anchor="middle" class="value">641.4 ns</text><circle cx="1185.0" cy="425.2" r="7" fill="#a78bfa"/><text x="1185.0" y="412.2" text-anchor="middle" class="value">4.26 µs</text><circle cx="1420.0" cy="234.0" r="7" fill="#a78bfa"/><text x="1420.0" y="221.0" text-anchor="middle" class="value">62.44 µs</text><polyline points="968.0,560.0 1203.0,425.4 1438.0,234.4" fill="none" stroke="#f59e0b" stroke-width="4" stroke-linecap="round" stroke-linejoin="round"/><circle cx="968.0" cy="560.0" r="7" fill="#f59e0b"/><text x="968.0" y="547.0" text-anchor="middle" class="value">640.7 ns</text><circle cx="1203.0" cy="425.4" r="7" fill="#f59e0b"/><text x="1203.0" y="412.4" text-anchor="middle" class="value">4.24 µs</text><circle cx="1438.0" cy="234.4" r="7" fill="#f59e0b"/><text x="1438.0" y="221.4" text-anchor="middle" class="value">62.07 µs</text><text x="950" y="594" text-anchor="middle" class="axis">64</text><text x="1185.0" y="594" text-anchor="middle" class="axis">1 KiB</text><text x="1420" y="594" text-anchor="middle" class="axis">16 KiB</text>
<text x="54" y="670" class="panelTitle">DGProto v1 highlights</text>
<g><rect x="54" y="692" width="350" height="120" rx="16" fill="#111a27" stroke="#223047"/><text x="78" y="728" class="cardLabel">16 KiB ENCODE THROUGHPUT</text><text x="78" y="773" class="cardBig">217.62 MB/s</text><text x="78" y="797" class="cardLabel">75.29 µs median latency</text></g>
<g><rect x="422" y="692" width="350" height="120" rx="16" fill="#111a27" stroke="#223047"/><text x="446" y="728" class="cardLabel">16 KiB DECODE THROUGHPUT</text><text x="446" y="773" class="cardBig">215.53 MB/s</text><text x="446" y="797" class="cardLabel">76.02 µs median latency</text></g>
<g><rect x="790" y="692" width="350" height="120" rx="16" fill="#111a27" stroke="#223047"/><text x="814" y="728" class="cardLabel">64 B ENCODE ALLOCATIONS</text><text x="814" y="773" class="cardBig">384 B · 6 allocs</text><text x="814" y="797" class="cardLabel">per operation · median</text></g>
<g><rect x="1158" y="692" width="388" height="120" rx="16" fill="#111a27" stroke="#223047"/><text x="1182" y="728" class="cardLabel">64 B DECODE ALLOCATIONS</text><text x="1182" y="773" class="cardBig">272 B · 5 allocs</text><text x="1182" y="797" class="cardLabel">per operation · median</text></g>
<line x1="54" y1="852" x2="1546" y2="852" stroke="#263244"/><text x="54" y="886" class="foot">Synthetic codec benchmark · same ChaCha20-Poly1305 · deterministic payloads · count=5</text><text x="54" y="914" class="foot">No network I/O, handshake, scheduling, application serialization, masking, compression, or full-stack behavior.</text><text x="54" y="942" class="foot">Baselines are local synthetic framing codecs—not complete WebSocket or other production protocol implementations.</text><text x="1546" y="886" text-anchor="end" class="foot">Intel(R) Xeon(R) CPU E5-2689 0 @ 2.60GHz</text><text x="1546" y="914" text-anchor="end" class="foot">go1.26.5 · windows/amd64</text><text x="1546" y="942" text-anchor="end" class="foot">Source: benchmarks/results/latest.jsonl</text>
<!-- Portfolio summary from the reproducible count=5, benchtime=1s run. -->
<g id="messenger-summary">
<rect width="1600" height="1000" rx="26" fill="#0b1018"/><rect x="48" y="42" width="7" height="72" rx="4" fill="#2dd4bf"/>
<text x="76" y="77" class="title" style="font-size:38px">Messenger secure envelopes</text><text x="76" y="108" class="subtitle">median of 5 × 1s runs · lower is better · independent linear scale per payload</text>
<circle cx="1250" cy="70" r="7" fill="#2dd4bf"/><text x="1265" y="75" class="legend">DGProto v1</text><circle cx="1360" cy="70" r="7" fill="#94a3b8"/><text x="1375" y="75" class="legend">synthetic HTTP</text>
<rect x="48" y="132" width="1504" height="64" rx="14" fill="#172235"/><text x="800" y="159" text-anchor="middle" class="panelTitle">LOCAL IN-MEMORY · NO NETWORK · NO TLS HANDSHAKE · SAME PRE-SERIALIZED JSON · SAME AEAD WORKLOAD</text><text x="800" y="184" text-anchor="middle" class="subtitle">HTTP is an explicitly synthetic secure envelope, not ordinary HTTP; each envelope header is authenticated as AAD</text>
<text x="48" y="235" class="panelTitle">Median encode latency</text><text x="800" y="235" class="panelTitle">Median decode latency</text>
<g transform="translate(48 255)"><rect width="720" height="250" rx="16" fill="#111a27" stroke="#223047"/><text x="20" y="30" class="axis">ns/op · each payload pair normalized separately</text>
<text x="20" y="72" class="axis">64 B</text><rect x="90" y="53" width="520" height="16" rx="8" fill="#2dd4bf"/><rect x="90" y="75" width="449" height="16" rx="8" fill="#94a3b8"/><text x="620" y="66" class="value">1.89 µs</text><text x="549" y="88" class="value">1.63 µs</text>
<text x="20" y="142" class="axis">1 KiB</text><rect x="90" y="123" width="520" height="16" rx="8" fill="#2dd4bf"/><rect x="90" y="145" width="426" height="16" rx="8" fill="#94a3b8"/><text x="620" y="136" class="value">6.31 µs</text><text x="526" y="158" class="value">5.17 µs</text>
<text x="20" y="212" class="axis">16 KiB</text><rect x="90" y="193" width="520" height="16" rx="8" fill="#2dd4bf"/><rect x="90" y="215" width="449" height="16" rx="8" fill="#94a3b8"/><text x="620" y="206" class="value">71.78 µs</text><text x="549" y="228" class="value">62.02 µs</text></g>
<g transform="translate(800 255)"><rect width="752" height="250" rx="16" fill="#111a27" stroke="#223047"/><text x="20" y="30" class="axis">ns/op · each payload pair normalized separately</text>
<text x="20" y="72" class="axis">64 B</text><rect x="90" y="53" width="379" height="16" rx="8" fill="#2dd4bf"/><rect x="90" y="75" width="520" height="16" rx="8" fill="#94a3b8"/><text x="479" y="66" class="value">1.74 µs</text><text x="620" y="88" class="value">2.40 µs</text>
<text x="20" y="142" class="axis">1 KiB</text><rect x="90" y="123" width="520" height="16" rx="8" fill="#2dd4bf"/><rect x="90" y="145" width="514" height="16" rx="8" fill="#94a3b8"/><text x="620" y="136" class="value">6.12 µs</text><text x="614" y="158" class="value">6.05 µs</text>
<text x="20" y="212" class="axis">16 KiB</text><rect x="90" y="193" width="520" height="16" rx="8" fill="#2dd4bf"/><rect x="90" y="215" width="471" height="16" rx="8" fill="#94a3b8"/><text x="620" y="206" class="value">71.49 µs</text><text x="571" y="228" class="value">64.79 µs</text></g>
<text x="48" y="548" class="panelTitle">Wire bytes and transport overhead</text><text x="48" y="574" class="subtitle">paired stacked bars · solid = identical JSON bytes · pale tail = framing + tag · independent linear scale per card</text>
<g transform="translate(48 595)"><rect width="480" height="190" rx="16" fill="#111a27" stroke="#223047"/><text x="22" y="32" class="panelTitle">64 B text · JSON 198 B</text><text x="22" y="70" class="axis">DGP</text><rect x="90" y="52" width="253" height="24" fill="#2dd4bf"/><rect x="343" y="52" width="72" height="24" fill="#99f6e4"/><text x="422" y="70" class="value">254 B</text><text x="22" y="116" class="axis">HTTP</text><rect x="90" y="98" width="253" height="24" fill="#94a3b8"/><rect x="343" y="98" width="137" height="24" fill="#cbd5e1"/><text x="236" y="158" class="subtitle">overhead 56 B vs 178 B</text></g>
<g transform="translate(560 595)"><rect width="480" height="190" rx="16" fill="#111a27" stroke="#223047"/><text x="22" y="32" class="panelTitle">1 KiB text · JSON 1,158 B</text><text x="22" y="70" class="axis">DGP</text><rect x="90" y="52" width="346" height="24" fill="#2dd4bf"/><rect x="436" y="52" width="17" height="24" fill="#99f6e4"/><text x="360" y="96" class="value">1,214 B</text><text x="22" y="136" class="axis">HTTP</text><rect x="90" y="118" width="346" height="24" fill="#94a3b8"/><rect x="436" y="118" width="44" height="24" fill="#cbd5e1"/><text x="234" y="172" class="subtitle">overhead 56 B vs 179 B</text></g>
<g transform="translate(1072 595)"><rect width="480" height="190" rx="16" fill="#111a27" stroke="#223047"/><text x="22" y="32" class="panelTitle">16 KiB text · JSON 16,518 B</text><text x="22" y="70" class="axis">DGP</text><rect x="90" y="52" width="384" height="24" fill="#2dd4bf"/><rect x="474" y="52" width="2" height="24" fill="#99f6e4"/><text x="350" y="96" class="value">16,574 B</text><text x="22" y="136" class="axis">HTTP</text><rect x="90" y="118" width="384" height="24" fill="#94a3b8"/><rect x="474" y="118" width="4" height="24" fill="#cbd5e1"/><text x="232" y="172" class="subtitle">overhead 56 B vs 180 B</text></g>
<line x1="48" y1="825" x2="1552" y2="825" stroke="#263244"/><text x="48" y="858" class="panelTitle">Scope and interpretation</text><text x="48" y="886" class="foot">Results are mixed: synthetic HTTP encode is faster here; DGProto v1 decode is faster at 64 B and its envelope has less overhead.</text><text x="48" y="912" class="foot">No global protocol ranking follows. Excludes JSON serialization, network, TLS, Noise handshake, routing, persistence, scheduling, and app work.</text><text x="48" y="940" class="foot">Intel Xeon E5-2689 0 · windows/amd64 · count=5 · benchtime=1s · methodology: benchmarks/METHODOLOGY.md</text>
</g>
</svg>